<svg width="300" height="150" viewBox="0 0 300 150" fill="none" xmlns="http://www.w3.org/2000/svg">
<path d="M224.285 148.958L187.785 112L150.285 74.9585L224.285 74.9585L224.285 148.958Z" fill="#41BCE3"/>
<path d="M224.285 75C224.285 55.1088 216.383 36.0322 202.318 21.967C188.253 7.90177 169.176 1.50175e-06 149.285 0C129.394 -1.50175e-06 110.317 7.90176 96.2522 21.967C82.1869 36.0322 74.2852 55.1088 74.2852 75L149.285 75L224.285 75Z" fill="#41BCE3"/>
<path d="M88.9467 75C76.9964 75 67.2164 78.6199 56.1758 82.2634C45.1352 85.9068 35.1034 91.2471 26.6533 97.9794C18.2031 104.712 11.5001 112.704 6.92696 121.5C2.35378 130.296 -5.22364e-07 139.724 0 149.245L91 149.245L88.9467 75Z" fill="#41BCE3"/>
<path d="M74.2852 75C74.2852 84.595 75.673 95.0312 79.3674 103.896C83.0618 112.761 88.4768 120.815 95.3031 127.6C102.13 134.385 110.234 139.766 119.153 143.438C128.072 147.11 137.631 149 147.285 149L147.285 75L74.2852 75Z" fill="#D9D9D9"/>
<path d="M299.285 75C299.285 65.1509 297.345 55.3982 293.576 46.2987C289.807 37.1993 284.283 28.9314 277.318 21.967C270.354 15.0026 262.086 9.47814 252.986 5.70903C243.887 1.93993 234.134 -4.3052e-07 224.285 0V75H299.285Z" fill="#D9D9D9"/>
</svg>
