<svg width="449" height="225" viewBox="0 0 449 225" fill="none" xmlns="http://www.w3.org/2000/svg">
<rect x="374" width="75" height="75" fill="#41BCE3"/>
<rect x="225" y="150" width="74" height="74" fill="#D9D9D9"/>
<path d="M0 150C0 164.834 4.39867 179.334 12.6398 191.668C20.8809 204.001 32.5943 213.614 46.2987 219.291C60.0032 224.968 75.0832 226.453 89.6318 223.559C104.18 220.665 117.544 213.522 128.033 203.033C138.522 192.544 145.665 179.18 148.559 164.632C151.453 150.083 149.968 135.003 144.291 121.299C138.614 107.594 129.001 95.8809 116.668 87.6398C104.334 79.3987 89.8336 75 75 75L75 150L0 150Z" fill="#41BCE3"/>
<path d="M449 150C449 135.166 444.601 120.666 436.36 108.332C428.119 95.9985 416.405 86.3856 402.701 80.709C388.997 75.0325 373.917 73.5472 359.368 76.4411C344.819 79.335 331.456 86.4781 320.967 96.967C310.478 107.456 303.335 120.82 300.441 135.368C297.547 149.917 299.032 164.997 304.709 178.701C310.385 192.406 319.998 204.119 332.332 212.36C344.666 220.601 359.166 225 374 225V150H449Z" fill="#41BCE3"/>
<path d="M225.723 75.7213C215.873 75.7213 205.161 77.1372 196.061 80.9063C186.962 84.6754 178.694 90.1998 171.73 97.1642C164.765 104.129 159.241 112.397 155.472 121.496C151.703 130.595 149.763 140.348 149.763 150.197L225.24 150.72L225.723 75.7213Z" fill="#D9D9D9"/>
<path d="M75 225C84.8491 225 94.6018 223.06 103.701 219.291C112.801 215.522 121.069 209.997 128.033 203.033C134.997 196.069 140.522 187.801 144.291 178.701C148.06 169.602 150 159.849 150 150H75L75 225Z" fill="#D9D9D9"/>
<path d="M374 75C364.02 75 354.137 75.9658 344.916 79.7852C335.695 83.6045 327.317 89.2026 320.26 96.2599C313.203 103.317 307.605 111.695 303.785 120.916C299.966 130.137 299 140.02 299 150L374 150V75Z" fill="#D9D9D9"/>
</svg>
