<svg width="524" height="226" viewBox="0 0 524 226" fill="none" xmlns="http://www.w3.org/2000/svg">
<rect x="151" y="76" width="74" height="74" fill="#41BCE3"/>
<path d="M76 0L151 76H76V0Z" fill="#41BCE3"/>
<rect x="450" y="76" width="74" height="74" fill="#D9D9D9"/>
<path d="M76 75.0002C61.1664 75.0002 46.6659 79.3989 34.3322 87.64C21.9986 95.8811 12.3856 107.595 6.70903 121.299C1.03247 135.003 -0.452789 150.083 2.4411 164.632C5.33499 179.181 12.478 192.544 22.967 203.033C33.4559 213.522 46.8196 220.665 61.3682 223.559C75.9168 226.453 90.9968 224.968 104.701 219.291C118.406 213.615 130.119 204.002 138.36 191.668C146.601 179.334 151 164.834 151 150L76 150L76 75.0002Z" fill="#41BCE3"/>
<path d="M450 76C450 61.1664 445.601 46.6659 437.36 34.3322C429.119 21.9985 417.406 12.3856 403.701 6.70903C389.997 1.03246 374.917 -0.452788 360.368 2.4411C345.82 5.335 332.456 12.4781 321.967 22.967C311.478 33.4559 304.335 46.8197 301.441 61.3682C298.547 75.9168 300.032 90.9968 305.709 104.701C311.386 118.406 320.999 130.119 333.332 138.36C345.666 146.601 360.166 151 375 151V76H450Z" fill="#41BCE3"/>
<path d="M375 150C375.063 159.849 376.548 170.552 380.376 179.627C384.203 188.702 389.781 196.935 396.79 203.854C403.799 210.774 412.102 216.245 421.226 219.955C430.349 223.666 440.114 225.543 449.963 225.48L450 150L375 150Z" fill="#D9D9D9"/>
<path d="M300 76C300 66.1509 298.06 56.3982 294.291 47.2987C290.522 38.1993 284.997 29.9314 278.033 22.967C271.069 16.0026 262.801 10.4781 253.701 6.70903C244.602 2.93993 234.849 1 225 1V76H300Z" fill="#D9D9D9"/>
<path d="M76 0.000244141C66.0195 0.000244141 56.1368 1.96605 46.9161 5.7854C37.6953 9.60475 29.3171 15.2029 22.2599 22.2601C15.2026 29.3174 9.60451 37.6956 5.78515 46.9163C1.9658 56.1371 -4.3626e-07 66.0198 0 76.0002L76 76.0002L76 0.000244141Z" fill="#D9D9D9"/>
</svg>
